<svg id="l" fill="#1B262C" xmlns="http://www.w3.org/2000/svg" xmlns:xlink="http://www.w3.org/1999/xlink" width="40" height="40" viewBox="33.6 .7 35 35"><path d="M48.303,33.005h-3.877c0,0-0.306-5.102-3.061-8.877c-2.755-3.775-5.714-8.265,7.347-8.265h4.489 c13.061,0,10.102,4.489,7.347,8.265c-2.756,3.775-3.062,8.877-3.062,8.877H53.61H48.303z"/><path d="M55.701,11.884h-9.489c-1.184,0-2.143-0.959-2.143-2.143s0.959-2.143,2.143-2.143h9.489c1.184,0,2.143,0.959,2.143,2.143 S56.885,11.884,55.701,11.884z"/><path d="M50.957,16.628c-1.184,0-2.143-0.959-2.143-2.143V4.996c0-1.184,0.959-2.143,2.143-2.143s2.143,0.959,2.143,2.143v9.489 C53.099,15.669,52.14,16.628,50.957,16.628z"/><circle cx="50.957" cy="16.628" r="3.469"/></svg>