<svg xmlns="http://www.w3.org/2000/svg" xmlns:xlink="http://www.w3.org/1999/xlink" viewBox="0 0 1000 1000" x="0px" y="0px"><defs><style>.cls-1{fill:none;}.cls-2{clip-path:url(#a);}</style><clipPath id="a"><rect class="cls-1" x="-5592.98" y="-62.22" width="937.5" height="937.5"/></clipPath></defs><path d="M692.5,682.5c11.82-33.58,1.89-64.42,0-70-11.15-32.89-38.54-59.98-70-70-33.48-10.66-49.32,5.08-83.73,13.19-7.09-16.06-14.18-32.13-21.27-48.19h35v-35h-35v-35h-35v35h-35v35h35c-4.86,11.01-9.72,22.02-14.58,33.03l-6.65,15.17-12.86,29.33,4.01-23.63,4.18-23.34-6.55,14.58c-27.1-8.33-42.92-19.58-72.55-10.14-31.46,10.02-58.85,37.11-70,70-1.89,5.58-11.82,36.42,0,70,8.8,25,22.02,29.8,52.5,70,14.48,19.1,19.75,28.9,23.45,35.89-23.32,4.42-40.95,24.9-40.95,49.51v37.1h315v-37.1c0-24.2-17.06-44.42-39.81-49.28h-36.14l4.48-1.12,36.05-9.01s.01-.02,.01-.02l22.06-5.45-18.64-.05c3.46-5.38,8.06-12.01,14.48-20.47,30.48-40.2,43.7-45,52.5-70Zm-227.5,35h-35c-11.66-11.66-23.34-23.34-35-35-11.03-19.88-10.46-42.02,0-52.5,9.21-9.22,27.98-11.32,45.81-2.84,8.69,4.14,17.16,10.79,24.19,20.34v70Zm140-35c-11.66,11.66-23.34,23.34-35,35h-35v-70c7.03-9.55,15.5-16.2,24.19-20.34,17.84-8.48,36.61-6.38,45.81,2.84,10.46,10.48,11.03,32.62,0,52.5Z"/><rect x="475.88" y="342.08" width="48.24" height="48.24" rx="10" ry="10"/><rect x="475.88" y="125" width="48.24" height="192.96" rx="10" ry="10"/><rect x="383.74" y="355.56" width="48.24" height="48.24" rx="10" ry="10" transform="translate(-105.26 162.39) rotate(-20)"/><rect x="334.24" y="147.21" width="48.24" height="192.96" rx="10" ry="10" transform="translate(-61.73 137.26) rotate(-20)"/><rect x="568.02" y="355.56" width="48.24" height="48.24" rx="10" ry="10" transform="translate(165.57 -179.63) rotate(20)"/><rect x="617.52" y="147.21" width="48.24" height="192.96" rx="10" ry="10" transform="translate(122.04 -204.76) rotate(20)"/><text x="0" y="1015" fill="#000000" font-size="5px" font-weight="bold" font-family="'Helvetica Neue', Helvetica, Arial-Unicode, Arial, Sans-serif" style="opacity:0">Created by Benjamin Kinard</text><text x="0" y="1020" fill="#000000" font-size="5px" font-weight="bold" font-family="'Helvetica Neue', Helvetica, Arial-Unicode, Arial, Sans-serif" style="opacity:0">from the Noun Project</text></svg>