<svg xmlns="http://www.w3.org/2000/svg" viewBox="0 0 1000 1000" x="0px" y="0px"><rect x="250" y="250" width="62.5" height="62.5"/><rect x="375" y="250" width="62.5" height="62.5"/><rect x="500" y="250" width="62.5" height="62.5"/><rect x="625" y="250" width="62.5" height="62.5"/><rect x="312.5" y="312.5" width="62.5" height="62.5"/><rect x="437.5" y="312.5" width="62.5" height="62.5"/><rect x="562.5" y="312.5" width="62.5" height="62.5"/><rect x="687.5" y="312.5" width="62.5" height="62.5"/><rect x="250" y="375" width="62.5" height="62.5"/><rect x="375" y="375" width="62.5" height="62.5"/><rect x="500" y="375" width="62.5" height="62.5"/><rect x="625" y="375" width="62.5" height="62.5"/><rect x="312.5" y="437.5" width="62.5" height="62.5"/><rect x="437.5" y="437.5" width="62.5" height="62.5"/><rect x="562.5" y="437.5" width="62.5" height="62.5"/><rect x="687.5" y="437.5" width="62.5" height="62.5"/><rect x="250" y="500" width="62.5" height="62.5"/><rect x="375" y="500" width="62.5" height="62.5"/><rect x="500" y="500" width="62.5" height="62.5"/><rect x="625" y="500" width="62.5" height="62.5"/><rect x="312.5" y="562.5" width="62.5" height="62.5"/><rect x="437.5" y="562.5" width="62.5" height="62.5"/><rect x="562.5" y="562.5" width="62.5" height="62.5"/><rect x="687.5" y="562.5" width="62.5" height="62.5"/><rect x="250" y="625" width="62.5" height="62.5"/><rect x="375" y="625" width="62.5" height="62.5"/><rect x="500" y="625" width="62.5" height="62.5"/><rect x="625" y="625" width="62.5" height="62.5"/><rect x="312.5" y="687.5" width="62.5" height="62.5"/><rect x="437.5" y="687.5" width="62.5" height="62.5"/><rect x="562.5" y="687.5" width="62.5" height="62.5"/><rect x="687.5" y="687.5" width="62.5" height="62.5"/><path d="M843.05,843.75l15.96,15.96-15.26-25.43V156.25H176.31l32.75,54.59,1.38,1.38-.34,.34,.34,.58-.46-.46-53.73-53.74-15.43-15.43,15.43,25.72V843.75H821.58l-30.82-51.37-1.38-1.38,.34-.34-.34-.58,.46,.46,53.21,53.21Zm-68.05-68.75H225V225H775V775Z"/><text x="0" y="1015" fill="#000000" font-size="5px" font-weight="bold" font-family="'Helvetica Neue', Helvetica, Arial-Unicode, Arial, Sans-serif" style="opacity:0">Created by Benjamin Kinard</text><text x="0" y="1020" fill="#000000" font-size="5px" font-weight="bold" font-family="'Helvetica Neue', Helvetica, Arial-Unicode, Arial, Sans-serif" style="opacity:0">from the Noun Project</text></svg>