<svg xmlns="http://www.w3.org/2000/svg" viewBox="0 0 1000 1250" x="0px" y="0px"><g><path d="M330.77,492.07s-.01,.03-.01,.05c.05-.02,.1-.03,.15-.05h-.14Zm0,0s-.01,.03-.01,.05c.05-.02,.1-.03,.15-.05h-.14Zm99.36,155.03l.07,.04,1.55-.04h-1.62Zm-99.36-155.03s-.01,.03-.01,.05c.05-.02,.1-.03,.15-.05h-.14Zm0,0s-.01,.03-.01,.05c.05-.02,.1-.03,.15-.05h-.14Zm99.36,155.03l.07,.04,1.55-.04h-1.62Zm-99.36-155.03s-.01,.03-.01,.05c.05-.02,.1-.03,.15-.05h-.14Zm99.36,155.03l.07,.04,1.55-.04h-1.62Zm-99.36-155.03s-.01,.03-.01,.05c.05-.02,.1-.03,.15-.05h-.14Z"/><path d="M881.8,514.15c-30.09,0-76.16,13.89-102.9,31.03-8.39,5.38-13.88,10.44-16.54,14.85l-94.82,28.6,125.89-80.69c22.06-5.66,44.68-14.67,60.52-24.82,26.75-17.14,24.04-31.04-6.04-31.04s-76.15,13.9-102.89,31.04c-14.67,9.4-20.47,17.82-17.77,23.51-49.75,23.19-99.52,46.39-149.28,69.59,22.62-23.2,45.24-46.4,67.87-69.59,20.47-5.69,40.94-14.11,55.6-23.51,26.75-17.14,24.04-31.04-6.04-31.04s-76.15,13.9-102.89,31.04c-15.84,10.15-21.35,19.16-16.95,24.82-41.88,25.53-83.76,51.05-125.64,76.57,.08-2.01,.16-4.02,.24-6.03,0-.01-.01-.02,0-.03,.1-2.13,.2-4.26,.31-6.39,.24-5,.48-9.99,.72-14.99,8.38-3.66,16.12-7.68,22.69-11.89,26.74-17.14,24.03-31.03-6.05-31.03s-76.14,13.89-102.89,31.03c-3.96,2.54-7.27,5-9.94,7.36-8.82-20.02-12.33-38.06-13.86-50.43h44.98c6.28-2.05,12.55-4.11,18.83-6.16l11.98-28.7-59.88-33.86c17.87-16.44,29.07-40.02,29.07-66.22,0-17.87-5.2-34.52-14.18-48.52-15.57-24.27-42.48-40.56-73.25-41.41-.04,0-.08,0-.12-.01-.8-.02-1.6-.02-2.41-.02-33.59,0-62.87,18.4-78.32,45.67-7.41,13.07-11.64,28.19-11.64,44.29,0,27.12,12,51.45,30.99,67.93l-56.85,32.14,12.08,28.94c4.59,1.98,9.19,3.95,13.78,5.93h12.61v-.04h67.18l-34.59,8.65c-8.27,2.04-16.54,4.08-24.82,6.12l23.4,.21c-3.47,14.34-9.68,32.92-21.29,52.53-21.74,36.72-50.8,57.44-67.47,67.47h-2.7c-4.15,0-8.21,.39-12.15,1.14-29.96,5.68-52.62,32.01-52.62,63.63v47.68h17.76l-.78,.5H502.9l41.06-26.32c30.81-19.74,27.69-35.75-6.96-35.75h-39.92c-.05-.24-.11-.47-.16-.71l58.61-6.83,.04-.02,33.5-3.86-24.58-.04,229.84-100.66c29.63-2.38,69.42-15.19,93.51-30.63,26.74-17.14,24.03-31.03-6.04-31.03ZM103.75,739.5v-37.68c0-26.29,18.71-48.92,44.49-53.81,3.36-.64,6.82-.96,10.28-.96h5.46l2.37-1.41c20.43-12.2,49.33-34.42,70.95-70.97,15.34-25.94,22.52-55.75,22.52-55.75,.11-.48,.22-.97,.34-1.45,8.36-2.09,15.24-4.28,20.31-6.04,7.06-2.45,11.2-3.91,16.35-6.65,7.04-3.76,12.23-7.94,15.65-11.04-9.64-.03-19.27-.07-28.9-.1-23.7,.02-47.4,.03-71.1,.05-1.41-.53-2.81-1.05-4.21-1.58-1.66-.72-3.33-1.44-5-2.15-1.06-.46-2.11-.91-3.17-1.36l-7.1-17.02,49.12-27.77,12.33-6.98-10.7-9.28c-17.5-15.19-27.54-37.2-27.54-60.38,0,0,.03-20.84,10.34-39.36,19.77-35.5,67.58-40.4,69.85-40.6,.49-.01,1.04-.01,1.64,.01,0,0,.23,.01,.45,.02,26.43,.75,50.74,14.51,65.04,36.81,8.24,12.85,12.6,27.76,12.6,43.12,0,22.3-9.42,43.75-25.84,58.86l-10.11,9.3,11.96,6.76,52.15,29.5-6.79,16.28c-1.69,.55-3.38,1.1-5.07,1.66-2.63,.86-5.26,1.72-7.89,2.58h-17.49l.16-.04h-36.29c.01,3.02,.02,6.04,.03,9.07,.09,.73,.18,1.46,.28,2.19,2.5,20.23,8.08,39.56,16.65,57.67,2.1,4.47,4.4,8.86,6.87,13.17,.07,.14,.15,.27,.23,.41,1.22,2.12,2.47,4.18,3.74,6.2,12.36,19.63,26.92,34.66,40.9,45.99h30.34l-10.07,2.52-12.84,3.21-58.41,14.6h83.12l1.17-.03c.3-.01,.59-.02,.88-.02,.76,0,1.52,.02,2.27,.05,2.7,.11,5.39,.41,8.02,.92,25.77,4.88,44.48,27.51,44.48,53.8v37.68H103.75Z"/></g><g><path d="M285.99,502.07l-34.59,8.65h.01l34.54-8.65h.04Z"/><path d="M285.99,502.07l-34.59,8.65h.01l34.54-8.65h.04Z"/></g><text x="0" y="1015" fill="#000000" font-size="5px" font-weight="bold" font-family="'Helvetica Neue', Helvetica, Arial-Unicode, Arial, Sans-serif" style="opacity:0">Created by Benjamin Kinard</text><text x="0" y="1020" fill="#000000" font-size="5px" font-weight="bold" font-family="'Helvetica Neue', Helvetica, Arial-Unicode, Arial, Sans-serif" style="opacity:0">from the Noun Project</text></svg>