<svg xmlns="http://www.w3.org/2000/svg" viewBox="0 0 1000 1250" x="0px" y="0px"><path d="M710.71,654.11c13.56-38.53,2.17-73.92,0-80.32-12.79-37.74-44.23-68.83-80.32-80.32-38.41-12.23-56.59,5.83-96.08,15.13-8.14-18.43-16.27-36.86-24.41-55.29h40.16v-40.16h-40.16v-40.16h-40.16v40.16h-40.16v40.16h40.16c-5.58,12.63-11.15,25.27-16.73,37.9l-7.63,17.41-14.76,33.65,4.6-27.11,4.8-26.78-7.52,16.73c-31.1-9.56-49.25-22.46-83.25-11.64-36.09,11.5-67.53,42.58-80.32,80.32-2.17,6.4-13.56,41.79,0,80.32,10.1,28.69,25.27,34.2,60.24,80.32,16.62,21.91,22.66,33.16,26.9,41.18-26.76,5.07-46.99,28.58-46.99,56.81v42.57h361.45v-42.57c0-27.77-19.57-50.97-45.68-56.55h-41.47l5.14-1.29,41.37-10.34s.01-.02,.01-.03l25.31-6.25-21.38-.06c3.97-6.17,9.25-13.78,16.62-23.49,34.98-46.12,50.14-51.63,60.24-80.32Zm-261.05,40.16h-40.16c-13.39-13.38-26.78-26.78-40.16-40.16-12.66-22.81-12-48.22,0-60.24,10.56-10.58,32.1-12.99,52.57-3.26,9.97,4.75,19.69,12.38,27.75,23.34v80.32Zm160.65-40.16c-13.39,13.38-26.78,26.78-40.16,40.16h-40.16v-80.32c8.06-10.96,17.78-18.59,27.75-23.34,20.47-9.73,42.01-7.33,52.57,3.26,12,12.02,12.66,37.43,0,60.24Z"/><path d="M695.91,156.3v186.99h-134.3c-7.36,0-13.32-5.97-13.32-13.32v-6.36h-36.23l2.97,17.49-7.67-17.49-18.05-41.2,2.41,14.26v.05l.37,2.09,10.32,60.83,6.51,38.92-29.12,4.87-13.35-79.82-6.74-40.25-25.38-151.72,29.12-4.87,1.64,9.84h113.58c10.39,0,18.83,8.43,18.83,18.83v.86h98.41Z"/><text x="0" y="1015" fill="#000000" font-size="5px" font-weight="bold" font-family="'Helvetica Neue', Helvetica, Arial-Unicode, Arial, Sans-serif" style="opacity:0">Created by Benjamin Kinard</text><text x="0" y="1020" fill="#000000" font-size="5px" font-weight="bold" font-family="'Helvetica Neue', Helvetica, Arial-Unicode, Arial, Sans-serif" style="opacity:0">from the Noun Project</text></svg>