<svg xmlns="http://www.w3.org/2000/svg" xmlns:xlink="http://www.w3.org/1999/xlink" viewBox="0 0 1000 1250" x="0px" y="0px"><defs><style>.cls-1{fill:none;}.cls-2{clip-path:url(#a);}</style><clipPath id="a"><rect class="cls-1" x="-2217.87" y="256.91" width="937.5" height="937.5"/></clipPath></defs><path d="M716.24,721.81c-.12,.14-.23,.27-.36,.41-.5-.14-1-.28-1.51-.41h1.87Z"/><path d="M781.25,808.81v66.25H218.75v-66.25c0-49.7,40.29-90,90-90h3.75c-11.45-36.22,34.64-96.99,62.5-125,39.89-40.11,77.02-47.86,93.75-93.75,4.13-11.32,6.34-23.11,6.94-33.37l-20.07,26.38,19.18-44.67s-.01-.02-.01-.03l26.4-61.86-40.22,54.91-.02,.03c-9.12,10.01-22.88,36.37-54.7,58.61-26.84,18.76-34.54,12.23-62.5,31.25-40.77,27.74-38.47,51.21-62.5,62.5-50.4,23.68-153.4-35.96-156.25-93.75-1.97-39.91,45.73-40.29,93.75-125,36.04-63.59,23.42-87.74,62.5-125,29.63-28.25,56.86-33.55,62.5-62.5,4.61-23.66-10.11-37.99,0-62.5,4.51-10.95,15.86-30.03,31.25-31.25,22.45-1.78,32.06,35.98,62.5,62.5,40.08,34.92,85.17,23.24,125,31.25,134.32,27,247.85,285.67,187.5,468.75-4.14,12.55-8.3,24.93-14.84,37.53l32.83,.09-38.23,9.45s-.03,.04-.04,.06l-61.47,15.37-12,3h58.12c.51,.13,1.01,.27,1.51,.41,37.73,10.71,65.37,45.43,65.37,86.59Z"/><text x="0" y="1015" fill="#000000" font-size="5px" font-weight="bold" font-family="'Helvetica Neue', Helvetica, Arial-Unicode, Arial, Sans-serif" style="opacity:0">Created by Benjamin Kinard</text><text x="0" y="1020" fill="#000000" font-size="5px" font-weight="bold" font-family="'Helvetica Neue', Helvetica, Arial-Unicode, Arial, Sans-serif" style="opacity:0">from the Noun Project</text></svg>