<svg xmlns="http://www.w3.org/2000/svg" xmlns:xlink="http://www.w3.org/1999/xlink" viewBox="0 0 1000 1250" x="0px" y="0px"><defs><style>.cls-1{fill:none;}.cls-2{clip-path:url(#a);}</style><clipPath id="a"><rect class="cls-1" x="-4467.87" y="256.91" width="937.5" height="937.5"/></clipPath></defs><path d="M503.52,218.8c-.06,0-.12,0-.17-.01l.08-.04,.09,.05Z"/><path d="M781.25,808.75v66.25H218.75v-66.25c0-43.94,31.48-80.52,73.12-88.41,5.47-1.05,11.11-1.59,16.88-1.59h3.75c21.1-12.21,63.31-40.55,93.75-93.75,14.99-26.21,23.03-51.28,27.43-71.52l-39.96-.07,51.2-12.71,37.83-9.45h-107.75c-6.38-2.74-12.77-5.49-19.15-8.23l-16.79-40.21,79-44.66c-26.38-22.91-43.06-56.71-43.06-94.4,0-22.37,5.87-43.37,16.17-61.53,21.47-37.9,62.16-63.47,108.83-63.47,1.12,0,2.23,.01,3.35,.04,.05,.01,.11,.01,.17,.01,42.75,1.18,80.14,23.82,101.77,57.54,12.48,19.45,19.71,42.59,19.71,67.41,0,36.41-15.56,69.18-40.4,92.02l83.21,47.05-16.65,39.87c-8.72,2.85-17.44,5.71-26.16,8.56h-62.5c2.8,22.09,10.11,56.79,31.25,93.75,18.52,32.38,41.41,55.54,61.24,71.47l27.51,.07-20.8,5.14s.05,.04,.08,.06l-68.03,17.01h97.5c5.77,0,11.41,.54,16.88,1.59,41.64,7.89,73.12,44.47,73.12,88.41Z"/><text x="0" y="1015" fill="#000000" font-size="5px" font-weight="bold" font-family="'Helvetica Neue', Helvetica, Arial-Unicode, Arial, Sans-serif" style="opacity:0">Created by Benjamin Kinard</text><text x="0" y="1020" fill="#000000" font-size="5px" font-weight="bold" font-family="'Helvetica Neue', Helvetica, Arial-Unicode, Arial, Sans-serif" style="opacity:0">from the Noun Project</text></svg>