<svg xmlns="http://www.w3.org/2000/svg" xmlns:xlink="http://www.w3.org/1999/xlink" viewBox="0 0 1000 1250" x="0px" y="0px"><defs><style>.cls-1{fill:none;}.cls-2{clip-path:url(#a);}</style><clipPath id="a"><rect class="cls-1" x="-2217.87" y="-868.09" width="937.5" height="937.5"/></clipPath></defs><path d="M781.25,808.81v66.25H218.75v-66.25c0-49.7,40.29-90,90-90h3.75V431.21l-37.22-.12,44.62-11,55.1-13.78h-65c-33.14,0-60-26.86-60-60V188.74c.32-.2,.45-.56,.35-.83-.08-.22-.29-.32-.35-.35,35.16-8.95,77.18-17.63,125-23.57v117.32h62.5v-123.1c20.07-1.23,40.92-1.91,62.5-1.9s42.44,.72,62.5,1.97v123.03h62.5v-117.17c47.32,5.93,88.93,14.54,123.82,23.42,.07,0,.49,.01,.83,.35,.22,.21,.35,.51,.35,.83v157.57c0,33.14-26.86,60-60,60h-2.5v286.98l39.6,.11-39.6,9.79-62.5,15.62h66.25c49.71,0,90,40.3,90,90Z"/><text x="0" y="1015" fill="#000000" font-size="5px" font-weight="bold" font-family="'Helvetica Neue', Helvetica, Arial-Unicode, Arial, Sans-serif" style="opacity:0">Created by Benjamin Kinard</text><text x="0" y="1020" fill="#000000" font-size="5px" font-weight="bold" font-family="'Helvetica Neue', Helvetica, Arial-Unicode, Arial, Sans-serif" style="opacity:0">from the Noun Project</text></svg>